<svg fill="none" xmlns="http://www.w3.org/2000/svg" viewBox="0.55 0 114.45 61.5">
<circle cx="85" cy="30" r="30" fill="#FFC93C"/>
<path d="M21.924 22.7L17.316 32.42C16.644 33.716 15.804 34.364 14.796 34.364C13.812 34.364 12.984 33.68 12.312 32.312L7.632 22.7V38H2.628V12.368H7.56L14.796 27.164L21.996 12.368H26.928V38H21.924V22.7ZM45.9557 38H42.8237L41.3837 35.516L36.3797 38.216C33.5957 38.216 31.7237 37.208 30.7637 35.192C30.2837 34.208 29.9477 33.152 29.7557 32.024C29.5877 30.872 29.5037 29.684 29.5037 28.46C29.5037 27.212 29.5157 26.3 29.5397 25.724C29.5637 25.124 29.6237 24.44 29.7197 23.672C29.8157 22.88 29.9477 22.22 30.1157 21.692C30.3077 21.164 30.5717 20.624 30.9077 20.072C31.2437 19.496 31.6517 19.04 32.1317 18.704C33.2117 17.96 34.6157 17.588 36.3437 17.588H41.2757L45.9557 17.3V38ZM41.2757 31.448V21.8H37.7117C36.3917 21.8 35.4677 22.304 34.9397 23.312C34.4357 24.32 34.1837 25.832 34.1837 27.848C34.1837 29.84 34.4237 31.244 34.9037 32.06C35.4077 32.876 36.3437 33.284 37.7117 33.284L41.2757 31.448ZM66.9862 38H62.3062V24.86C62.3062 23.684 62.0662 22.88 61.5862 22.448C61.1062 22.016 60.4342 21.8 59.5702 21.8L55.3582 23.564V38H50.6782V17.444H54.1702L55.2502 19.892L61.0102 17.228C62.6182 17.228 64.0102 17.828 65.1862 19.028C66.3862 20.204 66.9862 21.932 66.9862 24.212V38ZM81.7549 17.588L86.4349 17.3V37.064C86.4349 39.344 85.7869 41.084 84.4909 42.284C83.2189 43.508 81.3229 44.12 78.8029 44.12C76.8589 44.12 75.1549 43.736 73.6909 42.968C72.9229 42.584 72.3109 42.008 71.8549 41.24C71.3989 40.472 71.1709 39.56 71.1709 38.504L75.5269 38.288C75.5269 38.96 75.7669 39.44 76.2469 39.728C76.7269 40.016 77.5429 40.16 78.6949 40.16C79.8709 40.16 80.6629 39.872 81.0709 39.296C81.5029 38.72 81.7189 37.892 81.7189 36.812L81.8989 33.716L76.8589 36.416C74.0989 36.416 72.2389 35.48 71.2789 33.608C70.4149 31.952 69.9829 29.924 69.9829 27.524C69.9829 24.668 70.1989 22.652 70.6309 21.476C71.0869 20.18 71.7349 19.244 72.5749 18.668C73.6549 17.948 75.0709 17.588 76.8229 17.588H81.7549ZM81.7549 29.648V21.8H78.1909C76.8469 21.8 75.9229 22.256 75.4189 23.168C74.9149 24.08 74.6629 25.352 74.6629 26.984C74.6629 28.616 74.9149 29.78 75.4189 30.476C75.9469 31.148 76.8709 31.484 78.1909 31.484L81.7549 29.648ZM102.768 28.712V26.84C102.768 25.064 102.504 23.708 101.976 22.772C101.472 21.836 100.404 21.368 98.7716 21.368C96.1316 21.368 94.8116 23.144 94.8116 26.696V28.568C94.8116 32.384 96.1316 34.292 98.7716 34.292C100.476 34.292 101.592 33.656 102.12 32.384C102.552 31.376 102.768 30.152 102.768 28.712ZM107.448 27.632C107.448 32.072 106.608 35.048 104.928 36.56C103.512 37.856 101.46 38.504 98.7716 38.504C95.3396 38.504 93.0236 37.496 91.8236 35.48C90.6956 33.632 90.1316 31.016 90.1316 27.632C90.1316 24.464 90.6956 21.98 91.8236 20.18C93.0716 18.164 95.3396 17.156 98.6276 17.156C101.94 17.156 104.232 18.044 105.504 19.82C106.8 21.572 107.448 24.176 107.448 27.632Z" fill="#363636"/>
<path d="M8.784 56H7.218L6.498 54.758L3.996 56.108C2.604 56.108 1.668 55.604 1.188 54.596C0.948 54.104 0.78 53.576 0.684 53.012C0.6 52.436 0.558 51.842 0.558 51.23C0.558 50.606 0.564 50.15 0.576 49.862C0.588 49.562 0.618 49.22 0.666 48.836C0.714 48.44 0.78 48.11 0.864 47.846C0.96 47.582 1.092 47.312 1.26 47.036C1.428 46.748 1.632 46.52 1.872 46.352C2.412 45.98 3.114 45.794 3.978 45.794H6.444V42.464H8.784V56ZM6.444 52.724V47.9H4.662C4.002 47.9 3.54 48.152 3.276 48.656C3.024 49.16 2.898 49.916 2.898 50.924C2.898 51.92 3.018 52.622 3.258 53.03C3.51 53.438 3.978 53.642 4.662 53.642L6.444 52.724ZM19.1078 51.41H13.1138C13.1138 52.346 13.2578 53.03 13.5458 53.462C13.8458 53.894 14.4398 54.11 15.3278 54.11C15.9038 54.11 16.3298 53.93 16.6058 53.57C16.8818 53.198 17.0198 52.844 17.0198 52.508H19.1258C19.1258 53.792 18.7778 54.734 18.0818 55.334C17.3978 55.934 16.4858 56.234 15.3458 56.234C14.2178 56.234 13.3418 56.072 12.7178 55.748C11.4338 55.088 10.7918 53.336 10.7918 50.492C10.7918 48.8 11.1578 47.564 11.8898 46.784C12.6218 45.992 13.7378 45.596 15.2378 45.596C17.8418 45.596 19.1438 47.042 19.1438 49.934C19.1438 50.246 19.1318 50.738 19.1078 51.41ZM13.1678 49.808H17.0198C17.0198 49.016 16.8698 48.44 16.5698 48.08C16.2698 47.72 15.8078 47.54 15.1838 47.54C14.5718 47.54 14.0798 47.726 13.7078 48.098C13.3478 48.458 13.1678 49.028 13.1678 49.808ZM23.5152 56L21.1752 56.018V42.464H23.5152V56ZM27.2168 41.798C27.7808 41.798 28.1468 41.888 28.3148 42.068C28.4828 42.236 28.5668 42.602 28.5668 43.166C28.5668 43.718 28.4768 44.084 28.2968 44.264C28.1288 44.432 27.7628 44.516 27.1988 44.516C26.6468 44.516 26.2808 44.426 26.1008 44.246C25.9328 44.066 25.8488 43.7 25.8488 43.148C25.8488 42.596 25.9328 42.236 26.1008 42.068C26.2808 41.888 26.6528 41.798 27.2168 41.798ZM28.3688 56H26.0288V46.1H28.3688V56ZM38.4739 45.722L35.0359 56H33.1999L29.7439 45.722H32.2099L34.1179 52.418L36.0079 45.722H38.4739ZM47.5668 51.41H41.5728C41.5728 52.346 41.7168 53.03 42.0048 53.462C42.3048 53.894 42.8988 54.11 43.7868 54.11C44.3628 54.11 44.7888 53.93 45.0648 53.57C45.3408 53.198 45.4788 52.844 45.4788 52.508H47.5848C47.5848 53.792 47.2368 54.734 46.5408 55.334C45.8568 55.934 44.9448 56.234 43.8048 56.234C42.6768 56.234 41.8008 56.072 41.1768 55.748C39.8928 55.088 39.2508 53.336 39.2508 50.492C39.2508 48.8 39.6168 47.564 40.3488 46.784C41.0808 45.992 42.1968 45.596 43.6968 45.596C46.3008 45.596 47.6028 47.042 47.6028 49.934C47.6028 50.246 47.5908 50.738 47.5668 51.41ZM41.6268 49.808H45.4788C45.4788 49.016 45.3288 48.44 45.0288 48.08C44.7288 47.72 44.2668 47.54 43.6428 47.54C43.0308 47.54 42.5388 47.726 42.1668 48.098C41.8068 48.458 41.6268 49.028 41.6268 49.808ZM55.1782 45.758L54.5302 48.062C54.3502 47.99 54.1462 47.954 53.9182 47.954C53.3182 47.954 52.5802 48.212 51.7042 48.728V56H49.3642V45.722H51.1102L51.6502 46.622L54.1342 45.596C54.2542 45.584 54.4162 45.578 54.6202 45.578C54.8242 45.578 55.0102 45.638 55.1782 45.758ZM64.2438 45.722L60.3378 57.152C60.1578 57.668 59.9238 58.07 59.6358 58.358C59.1558 58.838 58.4838 59.078 57.6198 59.078H56.5218V56.972H57.2418C57.5778 56.972 57.8238 56.912 57.9798 56.792C58.1478 56.684 58.2918 56.462 58.4118 56.126L58.5918 55.622L55.4958 45.722H57.9618L59.7978 52.868L61.7778 45.722H64.2438Z" fill="#363636"/>
<mask id="mask0_380_820" style="mask-type:alpha" maskUnits="userSpaceOnUse" x="83" y="44" width="31" height="31">
<circle cx="98.5529" cy="59.5534" r="15.4007" transform="rotate(-4.46519 98.5529 59.5534)" fill="#6E8943"/>
</mask>
<g mask="url(#mask0_380_820)">
<circle cx="106.324" cy="45.8786" r="15.4007" transform="rotate(-4.46519 106.324 45.8786)" fill="#6E8943"/>
</g>
</svg>